<mxfile host="app.diagrams.net" modified="2023-08-02T01:27:24.119Z" agent="Mozilla/5.0 (Macintosh; Intel Mac OS X 10_15_7) AppleWebKit/605.1.15 (KHTML, like Gecko) Version/16.0 Safari/605.1.15" version="21.6.6" etag="qnekfqwezlyeEzcOChD9" type="github">
  <diagram name="Page-1" id="TIKLZ43Wg-FKo88Zw3aZ">
    <mxGraphModel>
      <root>
        <mxCell id="0" />
        <mxCell id="1" parent="0" />
      </root>
    </mxGraphModel>
  </diagram>
</mxfile>
